<svg height="73" viewBox="0 0 73 73" width="73" xmlns="http://www.w3.org/2000/svg"><g fill="none" fill-rule="nonzero"><rect fill="#fff" height="71" rx="14" stroke="#000" stroke-width="2" width="71" x="1" y="1"/><g fill="#000" transform="translate(11 17)"><path d="m49.2407485.0215731h-47.58091224c-.9167076 0-1.65983626.74322807-1.65983626 1.65983626v8.26339181h50.9005848v-8.26339181c0-.91660819-.7431287-1.65983626-1.6598363-1.65983626zm-17.2008187 7.17469591c-1.2203216 0-2.2130818-.99276024-2.2130818-2.21308188 0-1.22032163.9927602-2.21308187 2.2130818-2.21308187 1.2203217 0 2.2130819.99276024 2.2130819 2.21308187 0 1.22032164-.9927602 2.21308188-2.2130819 2.21308188zm6.0287369 0c-1.2203217 0-2.2130819-.99276024-2.2130819-2.21308188 0-1.22032163.9927602-2.21308187 2.2130819-2.21308187 1.2203216 0 2.2130818.99276024 2.2130818 2.21308187 0 1.22032164-.9927602 2.21308188-2.2130818 2.21308188zm6.0287368 0c-1.2203216 0-2.2130819-.99276024-2.2130819-2.21308188 0-1.22032163.9927603-2.21308187 2.2130819-2.21308187s2.2130819.99276024 2.2130819 2.21308187c0 1.22032164-.9927603 2.21308188-2.2130819 2.21308188z"/><path d="m0 13.2643743v23.8261462c0 .9166082.74312866 1.6598362 1.65983626 1.6598362h47.58101174c.9166081 0 1.6598362-.7431286 1.6598362-1.6598362v-23.8261462zm23.4073099 14.0071052-5.4333391 4.6232047c-.6980936.5941053-1.7456316.5097018-2.3397369-.1884912-.5941052-.6980936-.5097017-1.7456316.1884912-2.3397369l3.9476784-3.3591403-3.9476784-3.3591404c-.6981929-.5941052-.782497-1.6415438-.1884912-2.3397368.5940059-.6982924 1.6416433-.7824971 2.3397369-.1884912l5.4333391 4.6232046c.7784211.6624036.7784211 1.8660234 0 2.5283275zm10.5948772 5.0188772h-6.5568304c-.9166082 0-1.6598362-.7431286-1.6598362-1.6598362s.7431286-1.6598363 1.6598362-1.6598363h6.5568304c.9166082 0 1.6598363.7431287 1.6598363 1.6598363s-.7432281 1.6598362-1.6598363 1.6598362z"/></g></g></svg>